<?xml version="1.0" encoding="UTF-8"?><svg xmlns="http://www.w3.org/2000/svg" width="74.9" height="74.9"><circle cy="37.45" cx="36.972" r="28.563" fill="#002856"/><path d="M19.188,42.13c0.24,0.463,0.559,0.837,0.957,1.124c0.398,0.287,0.864,0.499,1.401,0.638c0.536,0.139,1.091,0.208,1.665,0.208c0.388,0,0.804-0.032,1.248-0.097c0.444-0.065,0.86-0.189,1.248-0.375c0.389-0.185,0.712-0.439,0.971-0.763c0.259-0.323,0.388-0.735,0.388-1.235c0-0.536-0.171-0.971-0.513-1.304c-0.342-0.333-0.791-0.61-1.346-0.832c-0.555-0.222-1.184-0.416-1.887-0.583c-0.703-0.166-1.415-0.351-2.136-0.555c-0.74-0.185-1.461-0.411-2.164-0.68c-0.703-0.268-1.332-0.615-1.887-1.041c-0.555-0.425-1.003-0.957-1.346-1.595c-0.342-0.638-0.513-1.41-0.513-2.317c0-1.017,0.217-1.901,0.652-2.65c0.435-0.749,1.003-1.373,1.706-1.873c0.703-0.499,1.498-0.869,2.386-1.11c0.888-0.24,1.776-0.361,2.663-0.361c1.036,0,2.03,0.116,2.983,0.347c0.952,0.232,1.799,0.606,2.538,1.124c0.74,0.518,1.327,1.179,1.762,1.984c0.435,0.805,0.652,1.78,0.652,2.927h-4.217c-0.037-0.592-0.162-1.082-0.375-1.47c-0.213-0.389-0.495-0.694-0.846-0.916c-0.352-0.222-0.754-0.379-1.207-0.472c-0.454-0.092-0.948-0.139-1.484-0.139c-0.352,0-0.703,0.037-1.054,0.111c-0.351,0.074-0.671,0.204-0.957,0.389c-0.287,0.185-0.523,0.416-0.707,0.694c-0.185,0.277-0.277,0.629-0.277,1.054c0,0.389,0.074,0.703,0.222,0.943c0.148,0.241,0.439,0.463,0.874,0.666c0.434,0.204,1.036,0.407,1.804,0.61c0.767,0.204,1.771,0.462,3.01,0.777c0.37,0.074,0.883,0.208,1.54,0.402c0.656,0.194,1.308,0.504,1.956,0.93c0.648,0.426,1.207,0.994,1.679,1.706c0.472,0.712,0.708,1.623,0.708,2.733c0,0.906-0.176,1.748-0.527,2.525c-0.352,0.777-0.874,1.448-1.568,2.011c-0.694,0.565-1.554,1.004-2.58,1.318c-1.027,0.314-2.215,0.472-3.565,0.472c-1.092,0-2.15-0.134-3.177-0.402c-1.027-0.268-1.933-0.689-2.719-1.262c-0.786-0.573-1.41-1.304-1.873-2.192c-0.463-0.888-0.685-1.942-0.666-3.163h4.217C18.828,41.104,18.948,41.668,19.188,42.13zM38.221,27.203v19.81h-4.356v-19.81H38.221zM52.731,27.203c0.888,0,1.688,0.143,2.4,0.43c0.712,0.287,1.322,0.68,1.831,1.179c0.508,0.499,0.897,1.078,1.165,1.734c0.268,0.657,0.402,1.364,0.402,2.122c0,1.165-0.245,2.174-0.735,3.024c-0.49,0.851-1.29,1.498-2.4,1.942v0.055c0.536,0.148,0.98,0.375,1.332,0.68c0.351,0.305,0.638,0.666,0.86,1.082c0.222,0.416,0.384,0.874,0.485,1.373c0.102,0.499,0.171,0.999,0.208,1.498c0.018,0.315,0.037,0.685,0.056,1.11c0.018,0.426,0.051,0.86,0.097,1.304c0.046,0.444,0.12,0.865,0.222,1.262c0.102,0.398,0.254,0.735,0.458,1.013h-4.356c-0.241-0.629-0.389-1.378-0.444-2.247c-0.056-0.869-0.139-1.702-0.25-2.497c-0.148-1.036-0.462-1.794-0.943-2.275c-0.481-0.481-1.267-0.721-2.358-0.721h-4.356v7.741h-4.356v-19.81H52.731zM51.177,36.165c0.999,0,1.748-0.222,2.247-0.666c0.499-0.444,0.749-1.165,0.749-2.164c0-0.962-0.25-1.66-0.749-2.095c-0.499-0.434-1.249-0.652-2.247-0.652h-4.772v5.577H51.177z" fill="#FFF"/>
</svg>
