<?xml version="1.0" encoding="UTF-8"?>
<svg xmlns="http://www.w3.org/2000/svg" width="150" height="150">
    <svg xmlns="http://www.w3.org/2000/svg" x="5" y="0" height="74.9" width="74.9">
        <circle cy="37.45" cx="36.972" r="28.563" fill="#6CBE45"/>
        <path d="m38.83 36.331h12v15.48h-4l-0.6-3.6c-1.52 1.76-3.72 4.359-8.96 4.359-6.92 0-13.2-4.96-13.2-15.04 0-7.84 4.36-15.24 14.04-15.2 8.8 0 12.28 5.72 12.601 9.68h-6c0-1.12-2.04-4.72-6.28-4.72-4.28 0-8.24 2.96-8.24 10.32 0 7.84 4.28 9.88 8.36 9.88 1.32 0 5.72-0.52 6.96-6.319h-6.681v-4.84z" fill="#fff"/>
    </svg>
    <svg xmlns="http://www.w3.org/2000/svg" x="70" y="0" width="74.9" height="74.9">
        <circle cy="37.45" cx="36.972" r="28.563" fill="#1e9dbf"/>
        <path d="m49.13 28.17h-8.682c0.000667 7.88-0.0013 15.76 0.001 23.64h-6v-23.64h-8.68v-5.08h23.361v5.08z" fill="#fff"/>
    </svg>
    <rect x="5" y="68" height="14" width="140" rx="3" stroke="black"/>
    <polyline points="14,70 16,68 138,68 140,70 135,80 133,82 10,82 8,80" fill="orange" stroke="black" />
    <text text-anchor="middle" x="75" y="80">REALTIME</text>
    <svg xmlns="http://www.w3.org/2000/svg" x="5" y="75" width="74.9" height="74.9">
        <circle cy="37.45" cx="36.972" r="28.563" fill="#FF6319"/>
        <path d="m33.7 51.81h-6v-28.72h20.44v5.08h-14.44v6.48h12.64v5.08h-12.64v12.08z" fill="#fff"/>
    </svg>
    <svg xmlns="http://www.w3.org/2000/svg" x="70" y="75" width="74.9" height="74.9">
        <circle cy="37.45" cx="36.972" r="28.563" fill="#808183"/>
        <path d="m31.41 42.972c0.04 1.6 0.84 4.64 6.08 4.64 2.84 0 6-0.68 6-3.72 0-2.24-2.16-2.84-5.2-3.561l-3.08-0.72c-4.64-1.08-9.12-2.12-9.12-8.44 0-3.2 1.72-8.84 11.04-8.84 8.8 0 11.16 5.76 11.2 9.28h-5.76c-0.16-1.28-0.64-4.32-5.88-4.32-2.28 0-5 0.84-5 3.44 0 2.24 1.84 2.72 3.04 3l7 1.72c3.92 0.96 7.52 2.56 7.52 7.72 0 8.64-8.8 9.399-11.32 9.399-10.48 0-12.28-6.04-12.28-9.6h5.76v0.002z" fill="#fff"/>
    </svg>
    <style>
    <![CDATA[
      text {
        font: bold italic 14px Verdana, Helvetica, Arial, sans-serif;
      }
      ]]>
  </style>
</svg>